# xmcd
#
# Track frame offsets: 
#        150
#        16730
#        55013
#        84463
#
# Disc length: 1518 seconds
#
# Revision: 7
# Processed by: cddbd v1.5.2PL0 Copyright (c) Steve Scherf et al.
# Submitted via: ExactAudioCopy v1.3
#
DISCID=2005ec04
DTITLE=Nerio's Dubwork meets Darryl Pandy - Sunshine and Happiness
DYEAR=1999
DGENRE=House
TTITLE0=Sunshine and Happiness (Radio Edit)
TTITLE1=Sunshine and Happiness (Nerio's Dubwork Mix)
TTITLE2=Sunshine and Happiness (Nerio's Accadub)
TTITLE3=Sunshine and Happiness (Alex HI-FI Mix)
EXTD=
EXTT0=
EXTT1=
EXTT2=
EXTT3=
PLAYORDER=
